<?xml version="1.0" encoding="utf-8"?>
<!-- Generator: Adobe Illustrator 16.0.0, SVG Export Plug-In . SVG Version: 6.00 Build 0)  -->
<!DOCTYPE svg PUBLIC "-//W3C//DTD SVG 1.1//EN" "http://www.w3.org/Graphics/SVG/1.1/DTD/svg11.dtd">
<svg version="1.1" id="Layer_1" xmlns="http://www.w3.org/2000/svg" xmlns:xlink="http://www.w3.org/1999/xlink" x="0px" y="0px"
	 width="50px" height="50px" viewBox="0 0 50 50" enable-background="new 0 0 50 50" xml:space="preserve">
<g>
	<path fill-rule="evenodd" clip-rule="evenodd" fill="#707070" d="M24.998,13.251c1.565,1.279,3.084,2.517,4.599,3.763
		c4.048,3.33,8.083,6.675,12.149,9.983c0.646,0.525,0.928,1.055,0.918,1.912c-0.048,4.405-0.021,8.815-0.022,13.223
		c0,1.79-0.74,2.537-2.514,2.539c-3.438,0-6.875-0.02-10.313,0.015c-0.674,0.007-0.849-0.224-0.844-0.859
		c0.023-3.357-0.006-6.716,0.024-10.074c0.006-0.675-0.168-0.918-0.881-0.902c-2.097,0.045-4.198,0.036-6.295,0.003
		c-0.626-0.01-0.816,0.184-0.813,0.81c0.027,3.33-0.006,6.663,0.03,9.994c0.007,0.765-0.164,1.045-0.996,1.034
		c-3.409-0.05-6.821-0.019-10.231-0.021c-1.675-0.002-2.452-0.763-2.455-2.446c-0.011-4.618-0.017-9.235,0.02-13.854
		c0.003-0.367,0.29-0.835,0.59-1.082c4.514-3.752,9.055-7.474,13.59-11.2C22.685,15.156,23.815,14.223,24.998,13.251z"/>
	<path fill-rule="evenodd" clip-rule="evenodd" fill="#707070" d="M34.92,12.249c0-0.795,0-1.36,0-1.924
		c-0.001-1.233-0.011-2.468,0-3.7c0.006-0.948,0.204-1.237,1.115-1.263c1.835-0.052,3.672-0.05,5.507-0.002
		c0.892,0.023,1.1,0.32,1.1,1.276c0.006,3.753,0.012,7.507-0.008,11.261c-0.002,0.657,0.182,1.116,0.714,1.542
		c1.824,1.456,3.599,2.971,5.397,4.456c1.212,1,1.257,1.358,0.27,2.567c-0.381,0.465-0.771,0.927-1.172,1.378
		c-0.613,0.689-1.022,0.741-1.741,0.15c-2.128-1.745-4.242-3.508-6.355-5.267c-4.739-3.937-9.476-7.874-14.204-11.821
		c-0.386-0.322-0.672-0.342-1.067-0.012c-4.709,3.93-9.43,7.847-14.144,11.769c-2.057,1.709-4.104,3.427-6.167,5.126
		c-1.037,0.854-1.35,0.821-2.208-0.171c-0.444-0.517-0.876-1.045-1.291-1.584c-0.537-0.693-0.506-1.191,0.17-1.758
		c3.007-2.532,6.03-5.046,9.048-7.567c4.003-3.345,8.016-6.681,12.013-10.036c2.173-1.823,4.088-1.813,6.237,0.025
		c1.974,1.686,3.978,3.34,5.969,5.001C34.279,11.844,34.485,11.958,34.92,12.249z"/>
</g>
</svg>
